<?xml version="1.0" encoding="iso-8859-1"?>
<!-- Uploaded to: SVG Repo, www.svgrepo.com, Generator: SVG Repo Mixer Tools -->
<svg height="800px" width="800px" version="1.1" id="Layer_1" xmlns="http://www.w3.org/2000/svg" xmlns:xlink="http://www.w3.org/1999/xlink" 
	 viewBox="0 0 512.001 512.001" xml:space="preserve">
<g>
	<g>
		<g>
			<path style="fill:#231F20;" d="M417.134,0H94.869C51.442,0,16.111,35.33,16.111,78.757V347.25
				c0,43.426,35.331,78.757,78.757,78.757h53.384l94.453,81.071c7.649,6.565,18.945,6.564,26.592,0l94.452-81.071h53.383
				c43.426,0,78.757-35.331,78.757-78.757V78.757C495.891,35.33,460.56,0,417.134,0z M256.002,464.683l-45.061-38.676h90.121
				L256.002,464.683z M455.062,347.248c0,20.913-17.015,37.928-37.928,37.928c-11.971,0-303.029,0-322.265,0
				c-20.913,0-37.928-17.014-37.928-37.928V78.757C56.94,57.843,73.955,40.829,94.869,40.829h322.265
				c20.913,0,37.928,17.014,37.928,37.928V347.248z"/>
			<path style="fill:#231F20;" d="M391.114,105.445H255.997c-11.274,0-20.415,9.14-20.415,20.415s9.14,20.415,20.415,20.415h135.117
				c11.274,0,20.415-9.14,20.415-20.415C411.528,114.583,402.389,105.445,391.114,105.445z"/>
			<path style="fill:#231F20;" d="M118.883,146.169c1.425,0.144,2.587,0.146,4.015,0c10.674-1.109,18.4-9.98,18.4-20.306
				c0-10.269-7.656-19.193-18.4-20.319c-1.334-0.136-2.682-0.136-4.015,0c-10.798,1.108-18.414,10.184-18.414,20.319
				C100.469,135.996,108.094,145.073,118.883,146.169z"/>
			<path style="fill:#231F20;" d="M256.005,279.733H120.889c-11.274,0-20.415,9.14-20.415,20.415s9.14,20.415,20.415,20.415h135.117
				c11.274,0,20.415-9.14,20.415-20.415S267.279,279.733,256.005,279.733z"/>
			<path style="fill:#231F20;" d="M186.447,146.169c1.425,0.144,2.587,0.146,4.015,0c10.674-1.109,18.4-9.98,18.4-20.306
				c0-10.269-7.656-19.193-18.4-20.319c-1.334-0.136-2.682-0.136-4.015,0c-10.798,1.108-18.414,10.184-18.414,20.319
				C168.032,135.996,175.658,145.073,186.447,146.169z"/>
			<path style="fill:#231F20;" d="M118.883,233.313c1.425,0.144,2.587,0.146,4.015,0c10.674-1.109,18.4-9.98,18.4-20.306
				c0-10.269-7.656-19.193-18.4-20.319c-1.334-0.136-2.682-0.136-4.015,0c-10.798,1.108-18.414,10.184-18.414,20.319
				C100.469,223.139,108.094,232.217,118.883,233.313z"/>
			<path style="fill:#231F20;" d="M258.015,233.313c10.674-1.109,18.4-9.98,18.4-20.306c0-10.269-7.656-19.193-18.4-20.319
				c-1.334-0.136-2.682-0.136-4.015,0c-10.798,1.108-18.414,10.184-18.414,20.319c0,10.133,7.626,19.21,18.414,20.306
				C255.425,233.457,256.588,233.458,258.015,233.313z"/>
			<path style="fill:#231F20;" d="M393.126,192.687c-1.334-0.136-2.682-0.136-4.015,0c-10.798,1.108-18.414,10.184-18.414,20.319
				c0,10.133,7.626,19.21,18.414,20.306c1.425,0.144,2.587,0.146,4.015,0c10.674-1.109,18.4-9.98,18.4-20.306
				C411.527,202.738,403.871,193.814,393.126,192.687z"/>
			<path style="fill:#231F20;" d="M393.126,279.831c-1.334-0.136-2.682-0.136-4.015,0c-10.798,1.108-18.414,10.184-18.414,20.319
				c0,10.132,7.626,19.21,18.414,20.306c1.425,0.144,2.587,0.146,4.015,0c10.674-1.109,18.4-9.98,18.4-20.306
				C411.527,289.883,403.871,280.958,393.126,279.831z"/>
			<path style="fill:#231F20;" d="M326.064,279.831c-1.334-0.136-2.682-0.136-4.015,0c-10.798,1.108-18.414,10.184-18.414,20.319
				c0,10.132,7.626,19.21,18.414,20.306c1.425,0.144,2.587,0.146,4.015,0c10.674-1.109,18.4-9.98,18.4-20.306
				C344.465,289.883,336.809,280.958,326.064,279.831z"/>
		</g>
	</g>
</g>
</svg>